<svg width="735" height="184" viewBox="0 0 735 184" fill="none" xmlns="http://www.w3.org/2000/svg">
<path fill-rule="evenodd" clip-rule="evenodd" d="M184 92C184 142.81 142.81 184 92 184C41.1898 184 0 142.81 0 92C0 41.1898 41.1898 0 92 0C142.81 0 184 41.1898 184 92ZM45.3961 103.955C36.029 105.937 33.1618 116.265 32.8991 121.181C32.2987 125.947 31.0977 136.02 31.0977 138.181C31.8183 152.412 44.3829 155.67 50.5751 155.519H73.5425H117.226C119.815 155.557 125.827 155.564 129.16 155.294C136.938 153.961 141.206 150.544 143.481 148.723L143.571 148.652C151.365 141.615 152.602 133.538 153.186 129.724C153.209 129.572 153.232 129.426 153.253 129.287C154.034 119.021 151.166 111.851 150.019 108.985L149.988 108.909C144.793 97.8043 138.398 95.5497 135.811 94.6373L135.811 94.6372C135.539 94.5414 135.309 94.4603 135.127 94.3854C127.111 90.9628 103.866 94.0101 93.245 95.9616L71.7412 99.3391C66.8625 100.052 54.7633 101.974 45.3961 103.955ZM43.1444 39.6687C44.357 36.4037 48.6161 28.9055 57.8931 28.185C66.9 28.185 83.1874 29.4609 90.2052 30.0989L110.358 32.4632L116.438 33.3639C125.67 34.8275 144.134 41.4926 144.134 56.444C144.134 56.5428 144.14 56.6922 144.148 56.8871C144.247 59.3584 144.642 69.1549 136.816 76.1465C136.028 76.822 130.511 81.438 122.63 82.6765C121.369 82.9467 105.292 85.5662 97.4107 86.8421L54.7407 93.5973C47.7604 94.498 39.5191 95.3761 37.6277 82.6765C36.9521 62.2984 41.6808 43.6092 43.1444 39.6687Z" fill="white"/>
<path d="M251.048 58.208C257.277 58.208 262.952 59.7227 268.072 62.752C273.192 65.7813 277.267 69.856 280.296 74.976C283.325 80.0533 284.84 85.6853 284.84 91.872C284.84 96.5227 283.965 100.896 282.216 104.992C280.467 109.088 278.035 112.693 274.92 115.808C271.848 118.88 268.264 121.291 264.168 123.04C260.115 124.789 255.741 125.664 251.048 125.664C247.037 125.664 243.475 124.768 240.36 122.976C237.288 121.141 234.707 118.773 232.616 115.872V124H217V28H232.616V68C234.707 65.0987 237.288 62.752 240.36 60.96C243.475 59.1253 247.037 58.208 251.048 58.208ZM250.856 110.56C254.184 110.56 257.192 109.728 259.88 108.064C262.611 106.357 264.787 104.096 266.408 101.28C268.029 98.464 268.84 95.328 268.84 91.872C268.84 88.4587 268.029 85.344 266.408 82.528C264.787 79.6693 262.611 77.408 259.88 75.744C257.149 74.08 254.141 73.248 250.856 73.248C247.613 73.248 244.712 74.1013 242.152 75.808C239.592 77.472 237.587 79.7333 236.136 82.592C234.685 85.408 233.96 88.5013 233.96 91.872C233.96 95.328 234.685 98.4853 236.136 101.344C237.587 104.16 239.592 106.4 242.152 108.064C244.712 109.728 247.613 110.56 250.856 110.56Z" fill="white"/>
<path d="M292.22 60H307.836V124H292.22V60ZM300.156 51.744C297.852 51.744 295.911 50.9973 294.332 49.504C292.753 47.968 291.964 46.048 291.964 43.744C291.964 41.4827 292.753 39.584 294.332 38.048C295.911 36.512 297.831 35.744 300.092 35.744C302.353 35.744 304.252 36.512 305.788 38.048C307.367 39.584 308.156 41.4827 308.156 43.744C308.156 46.048 307.388 47.968 305.852 49.504C304.316 50.9973 302.417 51.744 300.156 51.744Z" fill="white"/>
<path d="M322.19 124V28H337.806V124H322.19Z" fill="white"/>
<path d="M351.91 124V28H367.526V124H351.91Z" fill="white"/>
<path d="M415.678 58.208C421.907 58.208 427.582 59.7227 432.702 62.752C437.822 65.7813 441.897 69.856 444.926 74.976C447.955 80.0533 449.47 85.6853 449.47 91.872C449.47 96.5227 448.595 100.896 446.846 104.992C445.097 109.088 442.665 112.693 439.55 115.808C436.478 118.88 432.894 121.291 428.798 123.04C424.745 124.789 420.371 125.664 415.678 125.664C411.667 125.664 408.105 124.768 404.99 122.976C401.918 121.141 399.337 118.773 397.246 115.872V124H381.63V28H397.246V68C399.337 65.0987 401.918 62.752 404.99 60.96C408.105 59.1253 411.667 58.208 415.678 58.208ZM415.486 110.56C418.814 110.56 421.822 109.728 424.51 108.064C427.241 106.357 429.417 104.096 431.038 101.28C432.659 98.464 433.47 95.328 433.47 91.872C433.47 88.4587 432.659 85.344 431.038 82.528C429.417 79.6693 427.241 77.408 424.51 75.744C421.779 74.08 418.771 73.248 415.486 73.248C412.243 73.248 409.342 74.1013 406.782 75.808C404.222 77.472 402.217 79.7333 400.766 82.592C399.315 85.408 398.59 88.5013 398.59 91.872C398.59 95.328 399.315 98.4853 400.766 101.344C402.217 104.16 404.222 106.4 406.782 108.064C409.342 109.728 412.243 110.56 415.486 110.56Z" fill="white"/>
<path d="M454.29 100.32V60H469.906V96.224C469.906 98.7413 470.525 101.045 471.762 103.136C472.999 105.184 474.642 106.827 476.69 108.064C478.781 109.259 481.063 109.856 483.538 109.856C486.098 109.856 488.402 109.259 490.45 108.064C492.498 106.827 494.141 105.184 495.378 103.136C496.615 101.045 497.234 98.7413 497.234 96.224V60H512.85L512.914 124H497.298L497.234 118.176C495.015 120.48 492.391 122.315 489.362 123.68C486.333 125.003 483.09 125.664 479.634 125.664C474.983 125.664 470.738 124.533 466.898 122.272C463.058 119.968 459.986 116.917 457.682 113.12C455.421 109.28 454.29 105.013 454.29 100.32Z" fill="white"/>
<path d="M571.829 28H587.445V124H571.829V116C569.781 118.859 567.2 121.184 564.085 122.976C560.97 124.768 557.365 125.664 553.269 125.664C548.618 125.664 544.266 124.789 540.213 123.04C536.16 121.291 532.576 118.88 529.461 115.808C526.389 112.693 523.978 109.109 522.229 105.056C520.48 101.003 519.605 96.6507 519.605 92C519.605 87.3493 520.48 82.9973 522.229 78.944C523.978 74.8907 526.389 71.328 529.461 68.256C532.576 65.1413 536.16 62.7093 540.213 60.96C544.266 59.2107 548.618 58.336 553.269 58.336C557.365 58.336 560.97 59.232 564.085 61.024C567.2 62.7733 569.781 65.0987 571.829 68V28ZM553.461 110.624C556.789 110.624 559.733 109.792 562.293 108.128C564.853 106.464 566.858 104.224 568.309 101.408C569.76 98.5493 570.485 95.4133 570.485 92C570.485 88.544 569.76 85.408 568.309 82.592C566.858 79.7333 564.832 77.472 562.229 75.808C559.669 74.144 556.746 73.312 553.461 73.312C550.176 73.312 547.168 74.1653 544.437 75.872C541.749 77.536 539.594 79.776 537.973 82.592C536.394 85.408 535.605 88.544 535.605 92C535.605 95.456 536.416 98.592 538.037 101.408C539.658 104.224 541.813 106.464 544.501 108.128C547.232 109.792 550.218 110.624 553.461 110.624Z" fill="white"/>
<path d="M648.924 28H664.54V124H648.924V116C646.876 118.859 644.295 121.184 641.18 122.976C638.065 124.768 634.46 125.664 630.364 125.664C625.713 125.664 621.361 124.789 617.308 123.04C613.255 121.291 609.671 118.88 606.556 115.808C603.484 112.693 601.073 109.109 599.324 105.056C597.575 101.003 596.7 96.6507 596.7 92C596.7 87.3493 597.575 82.9973 599.324 78.944C601.073 74.8907 603.484 71.328 606.556 68.256C609.671 65.1413 613.255 62.7093 617.308 60.96C621.361 59.2107 625.713 58.336 630.364 58.336C634.46 58.336 638.065 59.232 641.18 61.024C644.295 62.7733 646.876 65.0987 648.924 68V28ZM630.556 110.624C633.884 110.624 636.828 109.792 639.388 108.128C641.948 106.464 643.953 104.224 645.404 101.408C646.855 98.5493 647.58 95.4133 647.58 92C647.58 88.544 646.855 85.408 645.404 82.592C643.953 79.7333 641.927 77.472 639.324 75.808C636.764 74.144 633.841 73.312 630.556 73.312C627.271 73.312 624.263 74.1653 621.532 75.872C618.844 77.536 616.689 79.776 615.068 82.592C613.489 85.408 612.7 88.544 612.7 92C612.7 95.456 613.511 98.592 615.132 101.408C616.753 104.224 618.908 106.464 621.596 108.128C624.327 109.792 627.313 110.624 630.556 110.624Z" fill="white"/>
<path d="M718.164 60H734.74L699.732 156H683.156L694.74 124L671.7 60H688.788L702.548 102.624L718.164 60Z" fill="white"/>
</svg>
