<svg width="120" height="120" viewBox="0 0 120 120" fill="none" xmlns="http://www.w3.org/2000/svg">
<mask id="mask0_120_3943" style="mask-type:alpha" maskUnits="userSpaceOnUse" x="18" y="23" width="85" height="76">
<mask id="path-1-outside-1_120_3943" maskUnits="userSpaceOnUse" x="17.3735" y="23.7583" width="86" height="75" fill="black">
<rect fill="white" x="17.3735" y="23.7583" width="86" height="75"/>
<path fill-rule="evenodd" clip-rule="evenodd" d="M61.5684 96.6368C83.8818 93.2734 101.97 74.5737 101.97 54.869C101.97 48.1897 99.8918 42.2523 96.275 37.4524L96.2944 37.4456L90.2159 29.3375L89.345 30.8629C82.1047 25.8987 72.3277 23.6583 61.5684 25.2801C39.2549 28.643 21.1666 47.3427 21.1666 67.0474C21.1666 70.1203 21.6065 73.0362 22.4337 75.7565C21.6791 75.6458 20.9736 75.5457 20.3735 75.4629L25.9625 83.1998C32.7795 93.3661 46.1676 98.9579 61.5684 96.6368Z"/>
</mask>
<path fill-rule="evenodd" clip-rule="evenodd" d="M61.5684 96.6368C83.8818 93.2734 101.97 74.5737 101.97 54.869C101.97 48.1897 99.8918 42.2523 96.275 37.4524L96.2944 37.4456L90.2159 29.3375L89.345 30.8629C82.1047 25.8987 72.3277 23.6583 61.5684 25.2801C39.2549 28.643 21.1666 47.3427 21.1666 67.0474C21.1666 70.1203 21.6065 73.0362 22.4337 75.7565C21.6791 75.6458 20.9736 75.5457 20.3735 75.4629L25.9625 83.1998C32.7795 93.3661 46.1676 98.9579 61.5684 96.6368Z" fill="#EBE9E9"/>
<path d="M61.5684 96.6368L61.7174 97.6256H61.7174L61.5684 96.6368ZM96.275 37.4524L95.9448 36.5085L94.6524 36.9606L95.4764 38.0541L96.275 37.4524ZM96.2944 37.4456L96.6246 38.3895L97.9137 37.9385L97.0945 36.8457L96.2944 37.4456ZM90.2159 29.3375L91.016 28.7377L90.1025 27.5192L89.3474 28.8417L90.2159 29.3375ZM89.345 30.8629L88.7795 31.6876L89.6751 32.3017L90.2134 31.3587L89.345 30.8629ZM61.5684 25.2801L61.7174 26.269L61.7174 26.269L61.5684 25.2801ZM22.4337 75.7565L22.2885 76.7459L23.8494 76.9749L23.3905 75.4656L22.4337 75.7565ZM20.3735 75.4629L20.5102 74.4723L18.1935 74.1527L19.5629 76.0485L20.3735 75.4629ZM25.9625 83.1998L26.793 82.6429L26.7833 82.6284L26.7731 82.6143L25.9625 83.1998ZM100.97 54.869C100.97 73.9802 83.3481 92.3425 61.4193 95.648L61.7174 97.6256C84.4155 94.2043 102.97 75.1673 102.97 54.869H100.97ZM95.4764 38.0541C98.9612 42.679 100.97 48.4046 100.97 54.869H102.97C102.97 47.9747 100.822 41.8257 97.0737 36.8506L95.4764 38.0541ZM96.6053 38.3963L96.6246 38.3895L95.9642 36.5017L95.9448 36.5085L96.6053 38.3963ZM97.0945 36.8457L91.016 28.7377L89.4157 29.9373L95.4943 38.0454L97.0945 36.8457ZM89.3474 28.8417L88.4766 30.3671L90.2134 31.3587L91.0843 29.8333L89.3474 28.8417ZM61.7174 26.269C72.2559 24.6805 81.7714 26.8827 88.7795 31.6876L89.9105 30.0381C82.4379 24.9147 72.3995 22.6362 61.4193 24.2913L61.7174 26.269ZM22.1666 67.0474C22.1666 47.9363 39.7886 29.5739 61.7174 26.269L61.4193 24.2913C38.7212 27.7122 20.1666 46.7492 20.1666 67.0474H22.1666ZM23.3905 75.4656C22.5926 72.8419 22.1666 70.0242 22.1666 67.0474H20.1666C20.1666 70.2165 20.6204 73.2305 21.477 76.0474L23.3905 75.4656ZM20.2369 76.4535C20.8341 76.5359 21.5368 76.6356 22.2885 76.7459L22.5789 74.7671C21.8215 74.656 21.1132 74.5554 20.5102 74.4723L20.2369 76.4535ZM26.7731 82.6143L21.1842 74.8773L19.5629 76.0485L25.1518 83.7854L26.7731 82.6143ZM61.4193 95.648C46.3287 97.9223 33.3566 92.4312 26.793 82.6429L25.1319 83.7568C32.2024 94.301 46.0064 99.9934 61.7174 97.6256L61.4193 95.648Z" fill="black" mask="url(#path-1-outside-1_120_3943)"/>
</mask>
<g mask="url(#mask0_120_3943)">
<mask id="path-3-outside-2_120_3943" maskUnits="userSpaceOnUse" x="17.3735" y="23.7583" width="86" height="75" fill="black">
<rect fill="white" x="17.3735" y="23.7583" width="86" height="75"/>
<path fill-rule="evenodd" clip-rule="evenodd" d="M61.5684 96.6368C83.8818 93.2734 101.97 74.5737 101.97 54.869C101.97 48.1897 99.8918 42.2523 96.275 37.4524L96.2944 37.4456L90.2159 29.3375L89.345 30.8629C82.1047 25.8987 72.3277 23.6583 61.5684 25.2801C39.2549 28.643 21.1666 47.3427 21.1666 67.0474C21.1666 70.1203 21.6065 73.0362 22.4337 75.7565C21.6791 75.6458 20.9736 75.5457 20.3735 75.4629L25.9625 83.1998C32.7795 93.3661 46.1676 98.9579 61.5684 96.6368Z"/>
</mask>
<path fill-rule="evenodd" clip-rule="evenodd" d="M61.5684 96.6368C83.8818 93.2734 101.97 74.5737 101.97 54.869C101.97 48.1897 99.8918 42.2523 96.275 37.4524L96.2944 37.4456L90.2159 29.3375L89.345 30.8629C82.1047 25.8987 72.3277 23.6583 61.5684 25.2801C39.2549 28.643 21.1666 47.3427 21.1666 67.0474C21.1666 70.1203 21.6065 73.0362 22.4337 75.7565C21.6791 75.6458 20.9736 75.5457 20.3735 75.4629L25.9625 83.1998C32.7795 93.3661 46.1676 98.9579 61.5684 96.6368Z" fill="#EBE9E9"/>
<path d="M61.5684 96.6368L61.7174 97.6256H61.7174L61.5684 96.6368ZM96.275 37.4524L95.9448 36.5085L94.6524 36.9606L95.4764 38.0541L96.275 37.4524ZM96.2944 37.4456L96.6246 38.3895L97.9137 37.9385L97.0945 36.8457L96.2944 37.4456ZM90.2159 29.3375L91.016 28.7377L90.1025 27.5192L89.3474 28.8417L90.2159 29.3375ZM89.345 30.8629L88.7795 31.6876L89.6751 32.3017L90.2134 31.3587L89.345 30.8629ZM61.5684 25.2801L61.7174 26.269L61.7174 26.269L61.5684 25.2801ZM22.4337 75.7565L22.2885 76.7459L23.8494 76.9749L23.3905 75.4656L22.4337 75.7565ZM20.3735 75.4629L20.5102 74.4723L18.1935 74.1527L19.5629 76.0485L20.3735 75.4629ZM25.9625 83.1998L26.793 82.6429L26.7833 82.6284L26.7731 82.6143L25.9625 83.1998ZM100.97 54.869C100.97 73.9802 83.3481 92.3425 61.4193 95.648L61.7174 97.6256C84.4155 94.2043 102.97 75.1673 102.97 54.869H100.97ZM95.4764 38.0541C98.9612 42.679 100.97 48.4046 100.97 54.869H102.97C102.97 47.9747 100.822 41.8257 97.0737 36.8506L95.4764 38.0541ZM96.6053 38.3963L96.6246 38.3895L95.9642 36.5017L95.9448 36.5085L96.6053 38.3963ZM97.0945 36.8457L91.016 28.7377L89.4157 29.9373L95.4943 38.0454L97.0945 36.8457ZM89.3474 28.8417L88.4766 30.3671L90.2134 31.3587L91.0843 29.8333L89.3474 28.8417ZM61.7174 26.269C72.2559 24.6805 81.7714 26.8827 88.7795 31.6876L89.9105 30.0381C82.4379 24.9147 72.3995 22.6362 61.4193 24.2913L61.7174 26.269ZM22.1666 67.0474C22.1666 47.9363 39.7886 29.5739 61.7174 26.269L61.4193 24.2913C38.7212 27.7122 20.1666 46.7492 20.1666 67.0474H22.1666ZM23.3905 75.4656C22.5926 72.8419 22.1666 70.0242 22.1666 67.0474H20.1666C20.1666 70.2165 20.6204 73.2305 21.477 76.0474L23.3905 75.4656ZM20.2369 76.4535C20.8341 76.5359 21.5368 76.6356 22.2885 76.7459L22.5789 74.7671C21.8215 74.656 21.1132 74.5554 20.5102 74.4723L20.2369 76.4535ZM26.7731 82.6143L21.1842 74.8773L19.5629 76.0485L25.1518 83.7854L26.7731 82.6143ZM61.4193 95.648C46.3287 97.9223 33.3566 92.4312 26.793 82.6429L25.1319 83.7568C32.2024 94.301 46.0064 99.9934 61.7174 97.6256L61.4193 95.648Z" fill="black" mask="url(#path-3-outside-2_120_3943)"/>
<path d="M34.6317 -1.27556L123.438 88.6414L66.2162 121.751L-31.5903 44.9338L34.6317 -1.27556Z" fill="black"/>
<path d="M34.0065 -15.2143L123.93 73.6896L117.942 77.6652L28.0183 -11.2387L34.0065 -15.2143Z" fill="black"/>
<mask id="path-7-outside-3_120_3943" maskUnits="userSpaceOnUse" x="17.3735" y="23.7583" width="86" height="75" fill="black">
<rect fill="white" x="17.3735" y="23.7583" width="86" height="75"/>
<path fill-rule="evenodd" clip-rule="evenodd" d="M61.5684 96.6368C83.8818 93.2734 101.97 74.5737 101.97 54.869C101.97 48.1897 99.8918 42.2523 96.275 37.4524L96.2944 37.4456L90.2159 29.3375L89.345 30.8629C82.1047 25.8987 72.3277 23.6583 61.5684 25.2801C39.2549 28.643 21.1666 47.3427 21.1666 67.0474C21.1666 70.1203 21.6065 73.0362 22.4337 75.7565C21.6791 75.6458 20.9736 75.5457 20.3735 75.4629L25.9625 83.1998C32.7795 93.3661 46.1676 98.9579 61.5684 96.6368Z"/>
</mask>
<path d="M61.5684 96.6368L61.7174 97.6256H61.7174L61.5684 96.6368ZM96.275 37.4524L95.9448 36.5085L94.6524 36.9606L95.4764 38.0541L96.275 37.4524ZM96.2944 37.4456L96.6246 38.3895L97.9137 37.9385L97.0945 36.8457L96.2944 37.4456ZM90.2159 29.3375L91.016 28.7377L90.1025 27.5192L89.3474 28.8417L90.2159 29.3375ZM89.345 30.8629L88.7795 31.6876L89.6751 32.3017L90.2134 31.3587L89.345 30.8629ZM61.5684 25.2801L61.7174 26.269L61.7174 26.269L61.5684 25.2801ZM22.4337 75.7565L22.2885 76.7459L23.8494 76.9749L23.3905 75.4656L22.4337 75.7565ZM20.3735 75.4629L20.5102 74.4723L18.1935 74.1527L19.5629 76.0485L20.3735 75.4629ZM25.9625 83.1998L26.793 82.6429L26.7833 82.6284L26.7731 82.6143L25.9625 83.1998ZM100.97 54.869C100.97 73.9802 83.3481 92.3425 61.4193 95.648L61.7174 97.6256C84.4155 94.2043 102.97 75.1673 102.97 54.869H100.97ZM95.4764 38.0541C98.9612 42.679 100.97 48.4046 100.97 54.869H102.97C102.97 47.9747 100.822 41.8257 97.0737 36.8506L95.4764 38.0541ZM96.6053 38.3963L96.6246 38.3895L95.9642 36.5017L95.9448 36.5085L96.6053 38.3963ZM97.0945 36.8457L91.016 28.7377L89.4157 29.9373L95.4943 38.0454L97.0945 36.8457ZM89.3474 28.8417L88.4766 30.3671L90.2134 31.3587L91.0843 29.8333L89.3474 28.8417ZM61.7174 26.269C72.2559 24.6805 81.7714 26.8827 88.7795 31.6876L89.9105 30.0381C82.4379 24.9147 72.3995 22.6362 61.4193 24.2913L61.7174 26.269ZM22.1666 67.0474C22.1666 47.9363 39.7886 29.5739 61.7174 26.269L61.4193 24.2913C38.7212 27.7122 20.1666 46.7492 20.1666 67.0474H22.1666ZM23.3905 75.4656C22.5926 72.8419 22.1666 70.0242 22.1666 67.0474H20.1666C20.1666 70.2165 20.6204 73.2305 21.477 76.0474L23.3905 75.4656ZM20.2369 76.4535C20.8341 76.5359 21.5368 76.6356 22.2885 76.7459L22.5789 74.7671C21.8215 74.656 21.1132 74.5554 20.5102 74.4723L20.2369 76.4535ZM26.7731 82.6143L21.1842 74.8773L19.5629 76.0485L25.1518 83.7854L26.7731 82.6143ZM61.4193 95.648C46.3287 97.9223 33.3566 92.4312 26.793 82.6429L25.1319 83.7568C32.2024 94.301 46.0064 99.9934 61.7174 97.6256L61.4193 95.648Z" fill="black" mask="url(#path-7-outside-3_120_3943)"/>
</g>
<path d="M54.4763 87.3728C76.9821 83.9809 95.3036 65.112 95.3036 45.1105C95.3036 25.023 76.8612 11.6311 54.3273 15.0273C31.8215 18.4191 13.5 37.288 13.5 57.289C13.5 77.377 31.9423 90.7689 54.4763 87.3728Z" fill="#25D17F" stroke="black"/>
<path d="M54.4757 80.1497C72.4662 77.4383 87.1273 62.3536 87.1273 46.3395C87.1273 30.2393 72.3453 19.5282 54.3267 22.2438C36.3362 24.9552 21.675 40.0399 21.675 56.0536C21.675 72.1541 36.4571 82.8653 54.4757 80.1497Z" fill="white" stroke="black"/>
<path d="M65.8116 41.0511C66.08 43.531 65.1028 45.4669 62.8795 46.8588C64.6252 46.9804 65.9308 47.4944 66.7961 48.4015C67.6613 49.3084 67.9972 50.7394 67.8031 52.6942C67.6987 53.6936 67.4562 54.5962 67.0758 55.4024C66.6954 56.2083 66.2143 56.898 65.6321 57.4716C65.0503 58.0453 64.3267 58.5607 63.4612 59.0183C62.596 59.4758 61.6896 59.8529 60.7423 60.1498C59.7947 60.4464 58.7093 60.716 57.4858 60.9581V66.2563L54.0393 66.7818V61.5669C52.8459 61.749 51.9357 61.881 51.309 61.9626V67.1984L47.863 67.7242V62.426C47.5943 62.467 47.1916 62.5248 46.6543 62.5999C46.117 62.6749 45.7067 62.7337 45.4235 62.777L40.9475 63.4599L41.6412 59.5518L44.1254 59.1728C44.8714 59.059 45.3042 58.6398 45.4235 57.9152V43.5793C45.2296 42.667 44.5658 42.2974 43.4317 42.4703L40.9475 42.8493V39.4418L45.6919 38.7389C46.647 38.5933 47.3706 38.4759 47.863 38.387V33.1509L51.3095 32.6254V37.7572C52.5328 37.5429 53.4429 37.3902 54.0397 37.2992V32.2088L57.4863 31.683V36.9188C58.6651 36.836 59.7093 36.8327 60.6195 36.9085C61.5297 36.9842 62.3728 37.1672 63.1484 37.4575C63.9244 37.7478 64.5398 38.1941 64.995 38.7963C65.4495 39.399 65.7219 40.1503 65.8116 41.0511ZM60.9997 53.1083C60.9997 52.6095 60.8877 52.1835 60.664 51.83C60.4403 51.4761 60.1641 51.1995 59.8361 51.0002C59.5077 50.8012 59.0789 50.6551 58.5491 50.5629C58.0196 50.4705 57.531 50.4171 57.0836 50.402C56.6359 50.3872 56.0838 50.4091 55.4274 50.4679C54.7709 50.5265 54.2562 50.5841 53.8831 50.641C53.5102 50.698 53.0289 50.7782 52.4396 50.8822C51.8503 50.9857 51.4958 51.0468 51.3766 51.0652V58.0877C51.4961 58.0695 51.772 58.031 52.2046 57.9719C52.6375 57.9129 52.9953 57.8616 53.2787 57.8183C53.5624 57.775 53.9576 57.7044 54.4648 57.6064C54.9723 57.5083 55.4086 57.4139 55.7742 57.3236C56.1398 57.2333 56.5648 57.1095 57.0499 56.9524C57.5348 56.7955 57.9488 56.6353 58.2918 56.472C58.635 56.309 58.9893 56.1095 59.3548 55.8736C59.7204 55.6378 60.0149 55.385 60.2386 55.1154C60.4626 54.8458 60.6454 54.5409 60.787 54.2007C60.9286 53.8606 60.9997 53.4964 60.9997 53.1083ZM59.4108 43.4609C59.4108 43.0039 59.3174 42.6129 59.1309 42.288C58.9446 41.9634 58.7169 41.7072 58.4484 41.5195C58.1798 41.3317 57.822 41.1927 57.3743 41.1014C56.9267 41.0104 56.5164 40.9589 56.1435 40.9464C55.7704 40.9339 55.3117 40.9485 54.7671 40.9902C54.2225 41.0316 53.7897 41.0803 53.469 41.136C53.1482 41.192 52.7454 41.2602 52.2606 41.3414C51.7758 41.4221 51.481 41.4705 51.3766 41.4865V47.8649C51.4511 47.8536 51.7087 47.8179 52.1486 47.7579C52.5888 47.6974 52.9357 47.6445 53.1893 47.5991C53.4429 47.5535 53.816 47.4827 54.3082 47.3869C54.8005 47.2907 55.2108 47.1902 55.539 47.0849C55.8674 46.9792 56.2515 46.8444 56.6916 46.6802C57.132 46.5163 57.4936 46.333 57.7771 46.1302C58.0605 45.9277 58.3365 45.6986 58.6051 45.4431C58.8735 45.1874 59.0751 44.89 59.2092 44.551C59.3433 44.2121 59.4108 43.8488 59.4108 43.4609Z" fill="black"/>
<mask id="path-12-outside-4_120_3943" maskUnits="userSpaceOnUse" x="60.5701" y="56.5167" width="44" height="32" fill="black">
<rect fill="white" x="60.5701" y="56.5167" width="44" height="32"/>
<path fill-rule="evenodd" clip-rule="evenodd" d="M81.4208 59.5167L84.3243 63.4412C84.5777 63.6972 84.7345 64.0505 84.7345 64.4825V67.087V70.251L97.9237 68.2393C98.0463 68.2206 98.1678 68.2061 98.2882 68.1958L99.1933 65.6165L102.024 69.5898C102.599 70.2596 102.937 71.1319 102.937 72.129C102.937 74.6996 100.692 77.126 97.9237 77.5484L84.7345 79.5601V82.6995V85.304C84.7345 86.7679 82.9344 87.878 81.6728 87.1922L66.7212 79.0621C66.3053 78.836 66.0589 78.466 65.982 78.0484L63.5701 74.5111L68.1077 75.0432L80.3029 64.6912L81.4208 59.5167Z"/>
</mask>
<path fill-rule="evenodd" clip-rule="evenodd" d="M81.4208 59.5167L84.3243 63.4412C84.5777 63.6972 84.7345 64.0505 84.7345 64.4825V67.087V70.251L97.9237 68.2393C98.0463 68.2206 98.1678 68.2061 98.2882 68.1958L99.1933 65.6165L102.024 69.5898C102.599 70.2596 102.937 71.1319 102.937 72.129C102.937 74.6996 100.692 77.126 97.9237 77.5484L84.7345 79.5601V82.6995V85.304C84.7345 86.7679 82.9344 87.878 81.6728 87.1922L66.7212 79.0621C66.3053 78.836 66.0589 78.466 65.982 78.0484L63.5701 74.5111L68.1077 75.0432L80.3029 64.6912L81.4208 59.5167Z" fill="#EBE9E9"/>
<path d="M84.3243 63.4412L83.5204 64.0359L83.5631 64.0936L83.6136 64.1446L84.3243 63.4412ZM81.4208 59.5167L82.2247 58.9219L80.9101 57.145L80.4433 59.3055L81.4208 59.5167ZM84.7345 70.251H83.7345V71.4151L84.8852 71.2396L84.7345 70.251ZM97.9237 68.2393L98.0744 69.2279L98.0745 69.2279L97.9237 68.2393ZM98.2882 68.1958L98.3738 69.1921L99.0178 69.1369L99.2318 68.5269L98.2882 68.1958ZM99.1933 65.6165L100.008 65.0362L98.8883 63.4653L98.2497 65.2854L99.1933 65.6165ZM102.024 69.5898L101.21 70.1701L101.236 70.207L101.266 70.2413L102.024 69.5898ZM97.9237 77.5484L98.0744 78.5369L98.0745 78.5369L97.9237 77.5484ZM84.7345 79.5601L84.5837 78.5715L83.7345 78.701V79.5601H84.7345ZM81.6728 87.1922L81.1951 88.0707L81.1952 88.0708L81.6728 87.1922ZM66.7212 79.0621L67.1989 78.1836L67.1988 78.1835L66.7212 79.0621ZM65.982 78.0484L66.9654 77.8672L66.9272 77.6596L66.8082 77.4851L65.982 78.0484ZM63.5701 74.5111L63.6865 73.5179L61.5084 73.2625L62.7439 75.0745L63.5701 74.5111ZM68.1077 75.0432L67.9912 76.0364L68.4232 76.087L68.7548 75.8055L68.1077 75.0432ZM80.3029 64.6912L80.9501 65.4536L81.2088 65.234L81.2804 64.9024L80.3029 64.6912ZM85.1282 62.8464L82.2247 58.9219L80.6169 60.1114L83.5204 64.0359L85.1282 62.8464ZM85.7345 64.4825C85.7345 63.793 85.4779 63.1851 85.0351 62.7377L83.6136 64.1446C83.6776 64.2092 83.7345 64.308 83.7345 64.4825H85.7345ZM85.7345 67.087V64.4825H83.7345V67.087H85.7345ZM85.7345 70.251V67.087H83.7345V70.251H85.7345ZM97.7729 67.2507L84.5837 69.2624L84.8852 71.2396L98.0744 69.2279L97.7729 67.2507ZM98.2027 67.1995C98.0603 67.2117 97.9169 67.2287 97.7729 67.2507L98.0745 69.2279C98.1756 69.2124 98.2754 69.2006 98.3738 69.1921L98.2027 67.1995ZM98.2497 65.2854L97.3446 67.8647L99.2318 68.5269L100.137 65.9476L98.2497 65.2854ZM102.839 69.0095L100.008 65.0362L98.3789 66.1968L101.21 70.1701L102.839 69.0095ZM103.937 72.129C103.937 70.8978 103.517 69.7931 102.783 68.9384L101.266 70.2413C101.682 70.726 101.937 71.3661 101.937 72.129H103.937ZM98.0745 78.5369C101.266 78.05 103.937 75.257 103.937 72.129H101.937C101.937 74.1423 100.119 76.202 97.7729 76.5598L98.0745 78.5369ZM84.8852 80.5486L98.0744 78.5369L97.7729 76.5598L84.5837 78.5715L84.8852 80.5486ZM85.7345 82.6995V79.5601H83.7345V82.6995H85.7345ZM85.7345 85.304V82.6995H83.7345V85.304H85.7345ZM81.1952 88.0708C82.2186 88.6271 83.3724 88.4168 84.2017 87.9054C85.0325 87.393 85.7345 86.4599 85.7345 85.304H83.7345C83.7345 85.612 83.5364 85.9659 83.1518 86.2031C82.7657 86.4412 82.3887 86.4431 82.1504 86.3136L81.1952 88.0708ZM66.2435 79.9406L81.1951 88.0707L82.1505 86.3137L67.1989 78.1836L66.2435 79.9406ZM64.9985 78.2296C65.1278 78.9316 65.5514 79.5644 66.2435 79.9406L67.1988 78.1835C67.0592 78.1076 66.99 78.0005 66.9654 77.8672L64.9985 78.2296ZM66.8082 77.4851L64.3963 73.9478L62.7439 75.0745L65.1558 78.6118L66.8082 77.4851ZM63.4536 75.5043L67.9912 76.0364L68.2241 74.05L63.6865 73.5179L63.4536 75.5043ZM79.6558 63.9289L67.4605 74.2808L68.7548 75.8055L80.9501 65.4536L79.6558 63.9289ZM80.4433 59.3055L79.3255 64.4801L81.2804 64.9024L82.3983 59.7278L80.4433 59.3055Z" fill="black" mask="url(#path-12-outside-4_120_3943)"/>
<path d="M62.7883 70.6243L62.7883 70.6243C62.176 71.1441 61.8467 71.8513 61.8467 72.5432C61.8467 73.2433 62.1884 73.9144 62.873 74.2867L63.1108 73.8494L62.8731 74.2867L77.825 82.4168L77.825 82.4168C78.6521 82.8665 79.6117 82.7083 80.3302 82.2652C81.0495 81.8216 81.6254 81.0333 81.6254 80.0894V77.4848V74.775L94.3898 72.828C97.3704 72.3734 99.828 69.7637 99.828 66.9144C99.828 63.9877 97.2592 62.0697 94.239 62.5304L81.6254 64.4543V61.8724V59.2678C81.6254 58.2944 81.0107 57.6104 80.2165 57.3629C79.436 57.1197 78.4941 57.2927 77.7402 57.9326L78.0626 58.3123L77.7402 57.9326L62.7883 70.6243Z" fill="white" stroke="black"/>
<mask id="path-15-outside-5_120_3943" maskUnits="userSpaceOnUse" x="66.5308" y="79.7575" width="42" height="27" fill="black">
<rect fill="white" x="66.5308" y="79.7575" width="42" height="27"/>
<path fill-rule="evenodd" clip-rule="evenodd" d="M87.128 98.4814L85.5921 99.0992L89.4429 104.645C89.8937 105.487 91.2019 105.672 92.1518 104.837L106.101 92.5717C106.881 91.8859 106.991 90.8476 106.431 90.238L103.152 85.848L101.87 87.5468L92.1518 81.9668C90.9867 81.2978 89.2826 82.3284 89.2826 83.7022V86.2812V89.5166L76.6687 91.4405C75.5512 91.6111 74.5256 92.1334 73.7236 92.8656L68.5308 92.5269L72.4629 98.2464C73.2084 99.594 74.8114 100.36 76.6687 100.077L87.128 98.4814Z"/>
</mask>
<path fill-rule="evenodd" clip-rule="evenodd" d="M87.128 98.4814L85.5921 99.0992L89.4429 104.645C89.8937 105.487 91.2019 105.672 92.1518 104.837L106.101 92.5717C106.881 91.8859 106.991 90.8476 106.431 90.238L103.152 85.848L101.87 87.5468L92.1518 81.9668C90.9867 81.2978 89.2826 82.3284 89.2826 83.7022V86.2812V89.5166L76.6687 91.4405C75.5512 91.6111 74.5256 92.1334 73.7236 92.8656L68.5308 92.5269L72.4629 98.2464C73.2084 99.594 74.8114 100.36 76.6687 100.077L87.128 98.4814Z" fill="#00C27C"/>
<path d="M87.128 98.4814L87.5012 99.4091L86.9772 97.4928L87.128 98.4814ZM85.5921 99.0992L85.2189 98.1714L84.0554 98.6394L84.7706 99.6695L85.5921 99.0992ZM89.4429 104.645L90.3243 104.173L90.2971 104.122L90.2643 104.075L89.4429 104.645ZM92.1518 104.837L91.4915 104.086L91.4915 104.086L92.1518 104.837ZM106.101 92.5717L105.441 91.8207L105.441 91.8207L106.101 92.5717ZM106.431 90.238L105.63 90.8365L105.66 90.8772L105.695 90.9147L106.431 90.238ZM103.152 85.848L103.953 85.2496L103.156 84.1824L102.354 85.2457L103.152 85.848ZM101.87 87.5468L101.372 88.414L102.137 88.8532L102.668 88.1491L101.87 87.5468ZM92.1518 81.9668L91.6539 82.834L91.6539 82.834L92.1518 81.9668ZM89.2826 89.5166L89.4333 90.5051L90.2826 90.3756V89.5166H89.2826ZM76.6687 91.4405L76.5179 90.452L76.5179 90.452L76.6687 91.4405ZM73.7236 92.8656L73.6585 93.8635L74.0834 93.8912L74.3978 93.6042L73.7236 92.8656ZM68.5308 92.5269L68.5958 91.5291L66.539 91.3949L67.7067 93.0935L68.5308 92.5269ZM72.4629 98.2464L73.3379 97.7623L73.3144 97.7199L73.2869 97.6799L72.4629 98.2464ZM76.6687 100.077L76.5179 99.0882L76.5179 99.0882L76.6687 100.077ZM86.7548 97.5536L85.2189 98.1714L85.9652 100.027L87.5012 99.4091L86.7548 97.5536ZM84.7706 99.6695L88.6214 105.216L90.2643 104.075L86.4135 98.5289L84.7706 99.6695ZM88.5614 105.118C89.4 106.683 91.5204 106.724 92.8122 105.588L91.4915 104.086C91.2177 104.327 90.9242 104.395 90.7035 104.374C90.4758 104.353 90.3651 104.249 90.3243 104.173L88.5614 105.118ZM92.8121 105.588L106.762 93.3227L105.441 91.8207L91.4915 104.086L92.8121 105.588ZM106.762 93.3227C107.849 92.3663 108.202 90.6871 107.167 89.5613L105.695 90.9147C105.781 91.0081 105.913 91.4054 105.441 91.8207L106.762 93.3227ZM102.351 86.4464L105.63 90.8365L107.232 89.6396L103.953 85.2496L102.351 86.4464ZM102.668 88.1491L103.95 86.4503L102.354 85.2457L101.072 86.9445L102.668 88.1491ZM102.368 86.6795L92.6498 81.0996L91.6539 82.834L101.372 88.414L102.368 86.6795ZM92.6498 81.0996C91.6722 80.5383 90.5582 80.7316 89.7627 81.2128C88.9654 81.695 88.2826 82.5869 88.2826 83.7022H90.2826C90.2826 83.4437 90.4518 83.1334 90.7978 82.9241C91.1456 82.7137 91.4663 82.7263 91.6539 82.834L92.6498 81.0996ZM88.2826 83.7022V86.2812H90.2826V83.7022H88.2826ZM88.2826 86.2812V89.5166H90.2826V86.2812H88.2826ZM89.1318 88.528L76.5179 90.452L76.8195 92.4291L89.4333 90.5051L89.1318 88.528ZM76.5179 90.452C75.191 90.6545 73.9865 91.2716 73.0494 92.1271L74.3978 93.6042C75.0647 92.9953 75.9113 92.5677 76.8195 92.4291L76.5179 90.452ZM68.4657 93.5248L73.6585 93.8635L73.7887 91.8677L68.5958 91.5291L68.4657 93.5248ZM73.2869 97.6799L69.3548 91.9604L67.7067 93.0935L71.6388 98.8129L73.2869 97.6799ZM71.5879 98.7305C72.5641 100.495 74.6089 101.403 76.8195 101.065L76.5179 99.0882C75.014 99.3177 73.8527 98.6928 73.3379 97.7623L71.5879 98.7305ZM76.8195 101.065L87.2788 99.47L86.9772 97.4928L76.5179 99.0882L76.8195 101.065Z" fill="black" mask="url(#path-15-outside-5_120_3943)"/>
<path d="M88.6366 99.6569L88.6366 99.6569L102.586 87.3916C103.139 86.9059 103.437 86.2544 103.437 85.6146C103.437 84.9673 103.127 84.3445 102.505 83.9872L88.5554 75.9778C87.7753 75.5299 86.8597 75.6718 86.1762 76.0853C85.4917 76.4993 84.9374 77.2458 84.9374 78.1468V80.7258V83.5315L72.7481 85.3909C69.9679 85.8149 67.6724 88.2493 67.6724 90.9127C67.6724 93.6536 70.079 95.4457 72.8989 95.0157L84.9374 93.1793V95.8423V98.4213C84.9374 99.3528 85.532 100.002 86.2914 100.23C87.0368 100.453 87.9314 100.277 88.6366 99.6569Z" fill="#25D17F" stroke="black"/>
</svg>
