<svg width="681" height="145" viewBox="0 0 681 145" fill="none" xmlns="http://www.w3.org/2000/svg">
<path fill-rule="evenodd" clip-rule="evenodd" d="M136 68C136 105.555 105.555 136 68 136C30.4446 136 0 105.555 0 68C0 30.4446 30.4446 0 68 0C105.555 0 136 30.4446 136 68ZM33.5536 76.8364C26.6301 78.301 24.5109 85.9347 24.3167 89.5684C23.8729 93.0912 22.9853 100.536 22.9853 102.134C23.5179 112.652 32.8047 115.06 37.3816 114.949H54.3575H86.6451C88.5591 114.977 93.0028 114.982 95.466 114.783C101.215 113.797 104.37 111.272 106.051 109.926L106.118 109.873C111.878 104.672 112.793 98.7023 113.224 95.8833L113.225 95.8796C113.242 95.768 113.258 95.6614 113.274 95.5599C113.851 87.9718 111.731 82.6727 110.883 80.5539L110.861 80.4979C107.021 72.2902 102.294 70.6237 100.382 69.9493L100.382 69.9492C100.181 69.8784 100.011 69.8185 99.8764 69.7631C93.9515 67.2334 76.7702 69.4857 68.9202 70.9281L53.0261 73.4246C49.4201 73.9516 40.4772 75.3718 33.5536 76.8364ZM31.8893 29.3204C32.7856 26.9071 35.9336 21.365 42.7906 20.8324C49.4478 20.8324 61.4863 21.7755 66.6734 22.247L81.569 23.9946L86.0626 24.6603C92.8863 25.7421 106.534 30.6685 106.534 41.7195C106.534 41.7925 106.538 41.9029 106.544 42.047C106.618 43.8736 106.909 51.1145 101.125 56.2822C100.542 56.7815 96.4646 60.1933 90.6395 61.1087C89.7075 61.3084 77.8243 63.2446 71.9992 64.1877L40.4605 69.1806C35.3012 69.8463 29.2098 70.4954 27.8118 61.1087C27.3125 46.0467 30.8075 32.2329 31.8893 29.3204Z" fill="black"/>
<path d="M197.048 47.208C203.277 47.208 208.952 48.7227 214.072 51.752C219.192 54.7813 223.267 58.856 226.296 63.976C229.325 69.0533 230.84 74.6853 230.84 80.872C230.84 85.5227 229.965 89.896 228.216 93.992C226.467 98.088 224.035 101.693 220.92 104.808C217.848 107.88 214.264 110.291 210.168 112.04C206.115 113.789 201.741 114.664 197.048 114.664C193.037 114.664 189.475 113.768 186.36 111.976C183.288 110.141 180.707 107.773 178.616 104.872V113H163V17H178.616V57C180.707 54.0987 183.288 51.752 186.36 49.96C189.475 48.1253 193.037 47.208 197.048 47.208ZM196.856 99.56C200.184 99.56 203.192 98.728 205.88 97.064C208.611 95.3573 210.787 93.096 212.408 90.28C214.029 87.464 214.84 84.328 214.84 80.872C214.84 77.4587 214.029 74.344 212.408 71.528C210.787 68.6693 208.611 66.408 205.88 64.744C203.149 63.08 200.141 62.248 196.856 62.248C193.613 62.248 190.712 63.1013 188.152 64.808C185.592 66.472 183.587 68.7333 182.136 71.592C180.685 74.408 179.96 77.5013 179.96 80.872C179.96 84.328 180.685 87.4853 182.136 90.344C183.587 93.16 185.592 95.4 188.152 97.064C190.712 98.728 193.613 99.56 196.856 99.56Z" fill="black"/>
<path d="M238.22 49H253.836V113H238.22V49ZM246.156 40.744C243.852 40.744 241.911 39.9973 240.332 38.504C238.753 36.968 237.964 35.048 237.964 32.744C237.964 30.4827 238.753 28.584 240.332 27.048C241.911 25.512 243.831 24.744 246.092 24.744C248.353 24.744 250.252 25.512 251.788 27.048C253.367 28.584 254.156 30.4827 254.156 32.744C254.156 35.048 253.388 36.968 251.852 38.504C250.316 39.9973 248.417 40.744 246.156 40.744Z" fill="black"/>
<path d="M268.19 113V17H283.806V113H268.19Z" fill="black"/>
<path d="M297.91 113V17H313.526V113H297.91Z" fill="black"/>
<path d="M361.678 47.208C367.907 47.208 373.582 48.7227 378.702 51.752C383.822 54.7813 387.897 58.856 390.926 63.976C393.955 69.0533 395.47 74.6853 395.47 80.872C395.47 85.5227 394.595 89.896 392.846 93.992C391.097 98.088 388.665 101.693 385.55 104.808C382.478 107.88 378.894 110.291 374.798 112.04C370.745 113.789 366.371 114.664 361.678 114.664C357.667 114.664 354.105 113.768 350.99 111.976C347.918 110.141 345.337 107.773 343.246 104.872V113H327.63V17H343.246V57C345.337 54.0987 347.918 51.752 350.99 49.96C354.105 48.1253 357.667 47.208 361.678 47.208ZM361.486 99.56C364.814 99.56 367.822 98.728 370.51 97.064C373.241 95.3573 375.417 93.096 377.038 90.28C378.659 87.464 379.47 84.328 379.47 80.872C379.47 77.4587 378.659 74.344 377.038 71.528C375.417 68.6693 373.241 66.408 370.51 64.744C367.779 63.08 364.771 62.248 361.486 62.248C358.243 62.248 355.342 63.1013 352.782 64.808C350.222 66.472 348.217 68.7333 346.766 71.592C345.315 74.408 344.59 77.5013 344.59 80.872C344.59 84.328 345.315 87.4853 346.766 90.344C348.217 93.16 350.222 95.4 352.782 97.064C355.342 98.728 358.243 99.56 361.486 99.56Z" fill="black"/>
<path d="M400.29 89.32V49H415.906V85.224C415.906 87.7413 416.525 90.0453 417.762 92.136C418.999 94.184 420.642 95.8267 422.69 97.064C424.781 98.2587 427.063 98.856 429.538 98.856C432.098 98.856 434.402 98.2587 436.45 97.064C438.498 95.8267 440.141 94.184 441.378 92.136C442.615 90.0453 443.234 87.7413 443.234 85.224V49H458.85L458.914 113H443.298L443.234 107.176C441.015 109.48 438.391 111.315 435.362 112.68C432.333 114.003 429.09 114.664 425.634 114.664C420.983 114.664 416.738 113.533 412.898 111.272C409.058 108.968 405.986 105.917 403.682 102.12C401.421 98.28 400.29 94.0133 400.29 89.32Z" fill="black"/>
<path d="M517.829 17H533.445V113H517.829V105C515.781 107.859 513.2 110.184 510.085 111.976C506.97 113.768 503.365 114.664 499.269 114.664C494.618 114.664 490.266 113.789 486.213 112.04C482.16 110.291 478.576 107.88 475.461 104.808C472.389 101.693 469.978 98.1093 468.229 94.056C466.48 90.0027 465.605 85.6507 465.605 81C465.605 76.3493 466.48 71.9973 468.229 67.944C469.978 63.8907 472.389 60.328 475.461 57.256C478.576 54.1413 482.16 51.7093 486.213 49.96C490.266 48.2107 494.618 47.336 499.269 47.336C503.365 47.336 506.97 48.232 510.085 50.024C513.2 51.7733 515.781 54.0987 517.829 57V17ZM499.461 99.624C502.789 99.624 505.733 98.792 508.293 97.128C510.853 95.464 512.858 93.224 514.309 90.408C515.76 87.5493 516.485 84.4133 516.485 81C516.485 77.544 515.76 74.408 514.309 71.592C512.858 68.7333 510.832 66.472 508.229 64.808C505.669 63.144 502.746 62.312 499.461 62.312C496.176 62.312 493.168 63.1653 490.437 64.872C487.749 66.536 485.594 68.776 483.973 71.592C482.394 74.408 481.605 77.544 481.605 81C481.605 84.456 482.416 87.592 484.037 90.408C485.658 93.224 487.813 95.464 490.501 97.128C493.232 98.792 496.218 99.624 499.461 99.624Z" fill="black"/>
<path d="M594.924 17H610.54V113H594.924V105C592.876 107.859 590.295 110.184 587.18 111.976C584.065 113.768 580.46 114.664 576.364 114.664C571.713 114.664 567.361 113.789 563.308 112.04C559.255 110.291 555.671 107.88 552.556 104.808C549.484 101.693 547.073 98.1093 545.324 94.056C543.575 90.0027 542.7 85.6507 542.7 81C542.7 76.3493 543.575 71.9973 545.324 67.944C547.073 63.8907 549.484 60.328 552.556 57.256C555.671 54.1413 559.255 51.7093 563.308 49.96C567.361 48.2107 571.713 47.336 576.364 47.336C580.46 47.336 584.065 48.232 587.18 50.024C590.295 51.7733 592.876 54.0987 594.924 57V17ZM576.556 99.624C579.884 99.624 582.828 98.792 585.388 97.128C587.948 95.464 589.953 93.224 591.404 90.408C592.855 87.5493 593.58 84.4133 593.58 81C593.58 77.544 592.855 74.408 591.404 71.592C589.953 68.7333 587.927 66.472 585.324 64.808C582.764 63.144 579.841 62.312 576.556 62.312C573.271 62.312 570.263 63.1653 567.532 64.872C564.844 66.536 562.689 68.776 561.068 71.592C559.489 74.408 558.7 77.544 558.7 81C558.7 84.456 559.511 87.592 561.132 90.408C562.753 93.224 564.908 95.464 567.596 97.128C570.327 98.792 573.313 99.624 576.556 99.624Z" fill="black"/>
<path d="M664.164 49H680.74L645.732 145H629.156L640.74 113L617.7 49H634.788L648.548 91.624L664.164 49Z" fill="black"/>
</svg>
