<svg version="1.2" xmlns="http://www.w3.org/2000/svg" viewBox="0 0 735 184" width="735" height="184">
	<title>bb_logo_dark</title>
	<style>
		.s0 { fill: #0bce5a } 
		.s1 { fill: #000000 } 
	</style>
	<path fill-rule="evenodd" class="s0" d="m192 92c0 50.8-41.2 92-92 92-50.8 0-92-41.2-92-92 0-50.8 41.2-92 92-92 50.8 0 92 41.2 92 92zm-138.6 12c-9.4 1.9-12.2 12.3-12.5 17.2-0.6 4.7-1.8 14.8-1.8 17 0.7 14.2 13.3 17.5 19.5 17.3h66.6c2.6 0.1 8.6 0.1 12-0.2 7.7-1.3 12-4.8 14.3-6.6h0.1c7.8-7.1 9-15.2 9.6-19q0-0.2 0.1-0.4c0.7-10.3-2.1-17.4-3.3-20.3v-0.1c-5.2-11.1-11.6-13.4-14.2-14.3q-0.4-0.1-0.7-0.2c-8-3.4-31.2-0.4-41.9 1.6l-21.5 3.3c-4.8 0.8-16.9 2.7-26.3 4.7zm-7.8-21.3c1.9 12.7 10.2 11.8 17.1 10.9l42.7-6.8c7.9-1.2 24-3.9 25.2-4.1 7.9-1.3 13.4-5.9 14.2-6.6 7.8-6.9 7.4-16.7 7.3-19.2q0-0.3 0-0.5c0-14.9-18.4-21.6-27.7-23l-6-0.9-20.2-2.4c-7-0.6-23.3-1.9-32.3-1.9-9.3 0.7-13.5 8.2-14.8 11.5-1.4 3.9-6.1 22.6-5.5 43z"/>
	<path class="s1" d="m243 58.2q9.4 0 17.1 4.6 7.7 4.5 12.2 12.2 4.5 7.6 4.5 16.9 0 6.9-2.6 13.1-2.6 6.1-7.3 10.8-4.6 4.6-10.7 7.2-6.1 2.7-13.2 2.7-6 0-10.6-2.7-4.6-2.8-7.8-7.1v8.1h-15.6v-96h15.6v40q3.2-4.4 7.8-7 4.6-2.8 10.6-2.8zm-0.1 52.4q4.9 0 9-2.5 4.1-2.6 6.5-6.8 2.4-4.2 2.4-9.4 0-5.1-2.4-9.4-2.4-4.3-6.5-6.8-4.1-2.5-9-2.5-4.9 0-8.7 2.6-3.9 2.5-6.1 6.8-2.1 4.2-2.1 9.3 0 5.2 2.1 9.4 2.2 4.3 6.1 6.8 3.8 2.5 8.7 2.5z"/>
	<path class="s1" d="m284.2 60h15.6v64h-15.6zm8-8.3q-3.5 0-5.9-2.2-2.3-2.3-2.3-5.8 0-3.3 2.3-5.7 2.4-2.3 5.8-2.3 3.4 0 5.7 2.3 2.4 2.4 2.4 5.7 0 3.5-2.3 5.8-2.4 2.2-5.7 2.2z"/>
	<path class="s1" d="m314.2 124v-96h15.6v96z"/>
	<path class="s1" d="m343.9 124v-96h15.6v96z"/>
	<path class="s1" d="m407.7 58.2q9.3 0 17 4.6 7.7 4.5 12.2 12.2 4.6 7.6 4.6 16.9 0 6.9-2.7 13.1-2.6 6.1-7.2 10.8-4.7 4.6-10.8 7.2-6.1 2.7-13.1 2.7-6 0-10.7-2.7-4.6-2.8-7.8-7.1v8.1h-15.6v-96h15.6v40q3.2-4.4 7.8-7 4.7-2.8 10.7-2.8zm-0.2 52.4q5 0 9-2.5 4.1-2.6 6.5-6.8 2.5-4.2 2.5-9.4 0-5.1-2.5-9.4-2.4-4.3-6.5-6.8-4.1-2.5-9-2.5-4.9 0-8.7 2.6-3.9 2.5-6 6.8-2.2 4.2-2.2 9.3 0 5.2 2.2 9.4 2.1 4.3 6 6.8 3.8 2.5 8.7 2.5z"/>
	<path class="s1" d="m446.3 100.3v-40.3h15.6v36.2q0 3.8 1.9 6.9 1.8 3.1 4.9 5 3.1 1.8 6.8 1.8 3.9 0 6.9-1.8 3.1-1.9 5-5 1.8-3.1 1.8-6.9v-36.2h15.7v64h-15.6l-0.1-5.8q-3.3 3.4-7.8 5.5-4.6 2-9.8 2-6.9 0-12.7-3.4-5.8-3.5-9.2-9.2-3.4-5.7-3.4-12.8z"/>
	<path class="s1" d="m563.8 28h15.6v96h-15.6v-8q-3 4.3-7.7 7-4.7 2.7-10.8 2.7-7 0-13.1-2.7-6.1-2.6-10.7-7.2-4.6-4.7-7.3-10.7-2.6-6.1-2.6-13.1 0-7 2.6-13.1 2.7-6 7.3-10.6 4.6-4.7 10.7-7.3 6.1-2.7 13.1-2.7 6.1 0 10.8 2.7 4.7 2.6 7.7 7zm-18.3 82.6q5 0 8.8-2.5 3.8-2.5 6-6.7 2.2-4.3 2.2-9.4 0-5.2-2.2-9.4-2.2-4.3-6.1-6.8-3.8-2.5-8.7-2.5-5 0-9.1 2.6-4 2.5-6.4 6.7-2.4 4.2-2.4 9.4 0 5.2 2.4 9.4 2.5 4.2 6.5 6.7 4.1 2.5 9 2.5z"/>
	<path class="s1" d="m640.9 28h15.6v96h-15.6v-8q-3 4.3-7.7 7-4.7 2.7-10.8 2.7-7 0-13.1-2.7-6.1-2.6-10.7-7.2-4.7-4.7-7.3-10.7-2.6-6.1-2.6-13.1 0-7 2.6-13.1 2.6-6 7.3-10.6 4.6-4.7 10.7-7.3 6.1-2.7 13.1-2.7 6.1 0 10.8 2.7 4.7 2.6 7.7 7zm-18.3 82.6q4.9 0 8.8-2.5 3.8-2.5 6-6.7 2.2-4.3 2.2-9.4 0-5.2-2.2-9.4-2.2-4.3-6.1-6.8-3.8-2.5-8.7-2.5-5 0-9.1 2.6-4 2.5-6.4 6.7-2.4 4.2-2.4 9.4 0 5.2 2.4 9.4 2.5 4.2 6.5 6.7 4.1 2.5 9 2.5z"/>
	<path class="s1" d="m710.2 60h16.5l-35 96h-16.5l11.5-32-23-64h17.1l13.7 42.6z"/>
</svg>