<svg width="120" height="120" viewBox="0 0 120 120" fill="none" xmlns="http://www.w3.org/2000/svg">
<mask id="mask0_120_3878" style="mask-type:alpha" maskUnits="userSpaceOnUse" x="25" y="20" width="75" height="87">
<path fill-rule="evenodd" clip-rule="evenodd" d="M96.6787 33.0919C98.0561 34.2688 98.869 35.9894 98.869 37.9693V58.1769C98.869 71.1532 92.0723 84.3969 80.6407 93.6943L68.5663 103.515C65.889 105.692 62.3149 106.273 59.6203 104.969L47.2083 98.9609C41.2982 96.1001 36.6004 91.804 33.4101 86.5486L26.1707 76.0185L29.3753 76.2322C28.8977 73.9231 28.6513 71.5213 28.6513 69.0508V49.1145C28.6513 45.8022 30.927 42.4977 34.3095 40.8967L59.4594 28.9933C62.472 27.5677 65.7403 27.0597 68.7468 27.5505L85.1166 30.2212L88.5621 21.8536L96.6787 33.0919Z" fill="#EBE9E9"/>
<path d="M96.6787 33.0919L96.2733 33.3847L96.3084 33.4332L96.3539 33.4721L96.6787 33.0919ZM80.6407 93.6943L80.3252 93.3064L80.3252 93.3064L80.6407 93.6943ZM68.5663 103.515L68.2508 103.127L68.2508 103.127L68.5663 103.515ZM59.6203 104.969L59.8382 104.519L59.8382 104.519L59.6203 104.969ZM47.2083 98.9609L47.4262 98.5108H47.4262L47.2083 98.9609ZM33.4101 86.5486L33.8375 86.2892L33.8302 86.2771L33.8221 86.2654L33.4101 86.5486ZM26.1707 76.0185L26.2039 75.5196L25.1737 75.4509L25.7586 76.3018L26.1707 76.0185ZM29.3753 76.2322L29.3421 76.7311L29.9981 76.7748L29.8649 76.1309L29.3753 76.2322ZM34.3095 40.8967L34.0956 40.4447L34.0956 40.4447L34.3095 40.8967ZM59.4594 28.9933L59.2455 28.5413L59.2455 28.5413L59.4594 28.9933ZM68.7468 27.5505L68.6662 28.0439L68.6663 28.0439L68.7468 27.5505ZM85.1166 30.2212L85.0361 30.7147L85.4278 30.7786L85.579 30.4116L85.1166 30.2212ZM88.5621 21.8536L88.9674 21.5609L88.4417 20.8329L88.0998 21.6632L88.5621 21.8536ZM96.3539 33.4721C97.6175 34.5517 98.369 36.1322 98.369 37.9693H99.369C99.369 35.8467 98.4947 33.9859 97.0034 32.7118L96.3539 33.4721ZM98.369 37.9693V58.1769H99.369V37.9693H98.369ZM98.369 58.1769C98.369 70.9811 91.6579 84.0894 80.3252 93.3064L80.9562 94.0822C92.4867 84.7043 99.369 71.3252 99.369 58.1769H98.369ZM80.3252 93.3064L68.2508 103.127L68.8818 103.903L80.9562 94.0822L80.3252 93.3064ZM68.2508 103.127C65.6955 105.205 62.327 105.724 59.8382 104.519L59.4025 105.419C62.3027 106.823 66.0825 106.18 68.8818 103.903L68.2508 103.127ZM59.8382 104.519L47.4262 98.5108L46.9905 99.4109L59.4025 105.419L59.8382 104.519ZM47.4262 98.5108C41.6007 95.6911 36.9766 91.4602 33.8375 86.2892L32.9827 86.8081C36.2242 92.1479 40.9957 96.5092 46.9905 99.4109L47.4262 98.5108ZM33.8221 86.2654L26.5827 75.7353L25.7586 76.3018L32.9981 86.8319L33.8221 86.2654ZM26.1374 76.5174L29.3421 76.7311L29.4086 75.7333L26.2039 75.5196L26.1374 76.5174ZM29.8649 76.1309C29.3943 73.8559 29.1513 71.488 29.1513 69.0508H28.1513C28.1513 71.5546 28.401 73.9904 28.8857 76.3334L29.8649 76.1309ZM29.1513 69.0508V49.1145H28.1513V69.0508H29.1513ZM29.1513 49.1145C29.1513 46.025 31.2872 42.8804 34.5234 41.3486L34.0956 40.4447C30.5667 42.115 28.1513 45.5794 28.1513 49.1145H29.1513ZM34.5234 41.3486L59.6733 29.4452L59.2455 28.5413L34.0956 40.4447L34.5234 41.3486ZM59.6732 29.4452C62.6033 28.0588 65.7693 27.571 68.6662 28.0439L68.8273 27.057C65.7113 26.5483 62.3407 27.0767 59.2455 28.5413L59.6732 29.4452ZM68.6663 28.0439L85.0361 30.7147L85.1971 29.7277L68.8273 27.057L68.6663 28.0439ZM85.579 30.4116L89.0244 22.044L88.0998 21.6632L84.6543 30.0308L85.579 30.4116ZM88.1568 22.1464L96.2733 33.3847L97.084 32.7992L88.9674 21.5609L88.1568 22.1464Z" fill="black"/>
</mask>
<g mask="url(#mask0_120_3878)">
<path fill-rule="evenodd" clip-rule="evenodd" d="M96.6787 33.0919C98.0561 34.2688 98.869 35.9894 98.869 37.9693V58.1769C98.869 71.1532 92.0723 84.3969 80.6407 93.6943L68.5663 103.515C65.889 105.692 62.3149 106.273 59.6203 104.969L47.2083 98.9609C41.2982 96.1001 36.6004 91.804 33.4101 86.5486L26.1707 76.0185L29.3753 76.2322C28.8977 73.9231 28.6513 71.5213 28.6513 69.0508V49.1145C28.6513 45.8022 30.927 42.4977 34.3095 40.8967L59.4594 28.9933C62.472 27.5677 65.7403 27.0597 68.7468 27.5505L85.1166 30.2212L88.5621 21.8536L96.6787 33.0919Z" fill="#EBE9E9"/>
<path d="M96.6787 33.0919L96.2733 33.3847L96.3084 33.4332L96.3539 33.4721L96.6787 33.0919ZM80.6407 93.6943L80.3252 93.3064L80.3252 93.3064L80.6407 93.6943ZM68.5663 103.515L68.2508 103.127L68.2508 103.127L68.5663 103.515ZM59.6203 104.969L59.8382 104.519L59.8382 104.519L59.6203 104.969ZM47.2083 98.9609L47.4262 98.5108H47.4262L47.2083 98.9609ZM33.4101 86.5486L33.8375 86.2892L33.8302 86.2771L33.8221 86.2654L33.4101 86.5486ZM26.1707 76.0185L26.2039 75.5196L25.1737 75.4509L25.7586 76.3018L26.1707 76.0185ZM29.3753 76.2322L29.3421 76.7311L29.9981 76.7748L29.8649 76.1309L29.3753 76.2322ZM34.3095 40.8967L34.0956 40.4447L34.0956 40.4447L34.3095 40.8967ZM59.4594 28.9933L59.2455 28.5413L59.2455 28.5413L59.4594 28.9933ZM68.7468 27.5505L68.6662 28.0439L68.6663 28.0439L68.7468 27.5505ZM85.1166 30.2212L85.0361 30.7147L85.4278 30.7786L85.579 30.4116L85.1166 30.2212ZM88.5621 21.8536L88.9674 21.5609L88.4417 20.8329L88.0998 21.6632L88.5621 21.8536ZM96.3539 33.4721C97.6175 34.5517 98.369 36.1322 98.369 37.9693H99.369C99.369 35.8467 98.4947 33.9859 97.0034 32.7118L96.3539 33.4721ZM98.369 37.9693V58.1769H99.369V37.9693H98.369ZM98.369 58.1769C98.369 70.9811 91.6579 84.0894 80.3252 93.3064L80.9562 94.0822C92.4867 84.7043 99.369 71.3252 99.369 58.1769H98.369ZM80.3252 93.3064L68.2508 103.127L68.8818 103.903L80.9562 94.0822L80.3252 93.3064ZM68.2508 103.127C65.6955 105.205 62.327 105.724 59.8382 104.519L59.4025 105.419C62.3027 106.823 66.0825 106.18 68.8818 103.903L68.2508 103.127ZM59.8382 104.519L47.4262 98.5108L46.9905 99.4109L59.4025 105.419L59.8382 104.519ZM47.4262 98.5108C41.6007 95.6911 36.9766 91.4602 33.8375 86.2892L32.9827 86.8081C36.2242 92.1479 40.9957 96.5092 46.9905 99.4109L47.4262 98.5108ZM33.8221 86.2654L26.5827 75.7353L25.7586 76.3018L32.9981 86.8319L33.8221 86.2654ZM26.1374 76.5174L29.3421 76.7311L29.4086 75.7333L26.2039 75.5196L26.1374 76.5174ZM29.8649 76.1309C29.3943 73.8559 29.1513 71.488 29.1513 69.0508H28.1513C28.1513 71.5546 28.401 73.9904 28.8857 76.3334L29.8649 76.1309ZM29.1513 69.0508V49.1145H28.1513V69.0508H29.1513ZM29.1513 49.1145C29.1513 46.025 31.2872 42.8804 34.5234 41.3486L34.0956 40.4447C30.5667 42.115 28.1513 45.5794 28.1513 49.1145H29.1513ZM34.5234 41.3486L59.6733 29.4452L59.2455 28.5413L34.0956 40.4447L34.5234 41.3486ZM59.6732 29.4452C62.6033 28.0588 65.7693 27.571 68.6662 28.0439L68.8273 27.057C65.7113 26.5483 62.3407 27.0767 59.2455 28.5413L59.6732 29.4452ZM68.6663 28.0439L85.0361 30.7147L85.1971 29.7277L68.8273 27.057L68.6663 28.0439ZM85.579 30.4116L89.0244 22.044L88.0998 21.6632L84.6543 30.0308L85.579 30.4116ZM88.1568 22.1464L96.2733 33.3847L97.084 32.7992L88.9674 21.5609L88.1568 22.1464Z" fill="black"/>
<path d="M102.275 69.8488L85.1341 52.7083L11.7727 66.4207C14.7437 74.4196 20.96 90.966 22.057 93.1599C23.4283 95.9024 46.7394 120.585 48.1106 121.27C49.2076 121.819 69.1363 119.671 78.9635 118.528L102.275 69.8488Z" fill="black"/>
<path d="M100.904 58.8778L87.8767 47.2222V40.366L100.904 52.0215V58.8778Z" fill="black"/>
<path d="M96.6787 33.0919L96.2733 33.3847L96.3084 33.4332L96.3539 33.4721L96.6787 33.0919ZM80.6407 93.6943L80.3252 93.3064L80.3252 93.3064L80.6407 93.6943ZM68.5663 103.515L68.2508 103.127L68.2508 103.127L68.5663 103.515ZM59.6203 104.969L59.8382 104.519L59.8382 104.519L59.6203 104.969ZM47.2083 98.9609L47.4262 98.5108H47.4262L47.2083 98.9609ZM33.4101 86.5486L33.8375 86.2892L33.8302 86.2771L33.8221 86.2654L33.4101 86.5486ZM26.1707 76.0185L26.2039 75.5196L25.1737 75.4509L25.7586 76.3018L26.1707 76.0185ZM29.3753 76.2322L29.3421 76.7311L29.9981 76.7748L29.8649 76.1309L29.3753 76.2322ZM34.3095 40.8967L34.0956 40.4447L34.0956 40.4447L34.3095 40.8967ZM59.4594 28.9933L59.2455 28.5413L59.2455 28.5413L59.4594 28.9933ZM68.7468 27.5505L68.6662 28.0439L68.6663 28.0439L68.7468 27.5505ZM85.1166 30.2212L85.0361 30.7147L85.4278 30.7786L85.579 30.4116L85.1166 30.2212ZM88.5621 21.8536L88.9674 21.5609L88.4417 20.8329L88.0998 21.6632L88.5621 21.8536ZM96.3539 33.4721C97.6175 34.5517 98.369 36.1322 98.369 37.9693H99.369C99.369 35.8467 98.4947 33.9859 97.0034 32.7118L96.3539 33.4721ZM98.369 37.9693V58.1769H99.369V37.9693H98.369ZM98.369 58.1769C98.369 70.9811 91.6579 84.0894 80.3252 93.3064L80.9562 94.0822C92.4867 84.7043 99.369 71.3252 99.369 58.1769H98.369ZM80.3252 93.3064L68.2508 103.127L68.8818 103.903L80.9562 94.0822L80.3252 93.3064ZM68.2508 103.127C65.6955 105.205 62.327 105.724 59.8382 104.519L59.4025 105.419C62.3027 106.823 66.0825 106.18 68.8818 103.903L68.2508 103.127ZM59.8382 104.519L47.4262 98.5108L46.9905 99.4109L59.4025 105.419L59.8382 104.519ZM47.4262 98.5108C41.6007 95.6911 36.9766 91.4602 33.8375 86.2892L32.9827 86.8081C36.2242 92.1479 40.9957 96.5092 46.9905 99.4109L47.4262 98.5108ZM33.8221 86.2654L26.5827 75.7353L25.7586 76.3018L32.9981 86.8319L33.8221 86.2654ZM26.1374 76.5174L29.3421 76.7311L29.4086 75.7333L26.2039 75.5196L26.1374 76.5174ZM29.8649 76.1309C29.3943 73.8559 29.1513 71.488 29.1513 69.0508H28.1513C28.1513 71.5546 28.401 73.9904 28.8857 76.3334L29.8649 76.1309ZM29.1513 69.0508V49.1145H28.1513V69.0508H29.1513ZM29.1513 49.1145C29.1513 46.025 31.2872 42.8804 34.5234 41.3486L34.0956 40.4447C30.5667 42.115 28.1513 45.5794 28.1513 49.1145H29.1513ZM34.5234 41.3486L59.6733 29.4452L59.2455 28.5413L34.0956 40.4447L34.5234 41.3486ZM59.6732 29.4452C62.6033 28.0588 65.7693 27.571 68.6662 28.0439L68.8273 27.057C65.7113 26.5483 62.3407 27.0767 59.2455 28.5413L59.6732 29.4452ZM68.6663 28.0439L85.0361 30.7147L85.1971 29.7277L68.8273 27.057L68.6663 28.0439ZM85.579 30.4116L89.0244 22.044L88.0998 21.6632L84.6543 30.0308L85.579 30.4116ZM88.1568 22.1464L96.2733 33.3847L97.084 32.7992L88.9674 21.5609L88.1568 22.1464Z" fill="black"/>
</g>
<path d="M51.0219 17.0771L51.022 17.0771C53.9519 15.6902 57.1179 15.203 60.0149 15.6753C60.0149 15.6753 60.015 15.6753 60.015 15.6753L84.527 19.6745C87.6555 20.1851 89.7177 22.5631 89.7177 25.6012V45.8088C89.7177 58.6131 83.0065 71.7214 71.6739 80.9384L59.5995 90.7589C57.0442 92.8367 53.6757 93.3552 51.1868 92.1507L38.7749 86.1427C27.3281 80.602 20.5 69.602 20.5 56.6822V36.7459C20.5 33.657 22.6358 30.5123 25.872 28.9805C25.872 28.9805 25.872 28.9805 25.872 28.9805L51.0219 17.0771Z" fill="#25D17F" stroke="black"/>
<path d="M51.5979 23.6445L51.5979 23.6444C54.0238 22.5088 56.6436 22.1108 59.0384 22.4969L79.4455 25.7894C82.0153 26.2041 83.6958 28.1299 83.6958 30.5813V47.2178C83.6958 57.7266 78.1249 68.4941 68.7067 76.0689L58.6544 84.1539C56.5475 85.8481 53.7755 86.2657 51.7358 85.2895L41.4025 80.3433C31.9012 75.7954 26.2373 66.7699 26.2373 56.1696V39.7565C26.2373 37.256 27.9887 34.6945 30.6598 33.4442C30.6598 33.4442 30.6598 33.4442 30.6598 33.4442L51.5979 23.6445Z" fill="white" stroke="black"/>
<path fill-rule="evenodd" clip-rule="evenodd" d="M55.3052 80.057C54.2196 80.2496 53.1278 80.1353 52.1931 79.688L43.8348 75.6872C36.7412 72.2918 32.241 65.8598 31.4602 58.1862L55.3052 54.6622V80.057ZM78.4017 51.846L55.3052 54.6622V28.122C56.3314 27.9733 57.3559 27.9752 58.3388 28.1337L74.8452 30.7968C77.1069 31.1618 78.6231 32.8779 78.6231 35.0721V48.5286C78.6231 49.6334 78.5483 50.7412 78.4017 51.846Z" fill="#25D17F"/>
<path d="M55.3052 80.057L55.3925 80.5493L55.8052 80.4761V80.057H55.3052ZM52.1931 79.688L51.9772 80.139L51.9772 80.139L52.1931 79.688ZM43.8348 75.6872L44.0507 75.2362H44.0507L43.8348 75.6872ZM31.4602 58.1862L31.3871 57.6915L30.9144 57.7614L30.9628 58.2368L31.4602 58.1862ZM78.4017 51.846L78.4622 52.3423L78.8464 52.2955L78.8974 51.9118L78.4017 51.846ZM55.3052 28.122L55.2335 27.6272L54.8052 27.6892V28.122H55.3052ZM58.3388 28.1337L58.4184 27.6401L58.4184 27.6401L58.3388 28.1337ZM74.8452 30.7968L74.9249 30.3032L74.9248 30.3032L74.8452 30.7968ZM55.2178 79.5647C54.2203 79.7416 53.2366 79.6331 52.4089 79.237L51.9772 80.139C53.019 80.6376 54.219 80.7575 55.3925 80.5493L55.2178 79.5647ZM52.4089 79.237L44.0507 75.2362L43.619 76.1382L51.9772 80.139L52.4089 79.237ZM44.0507 75.2362C37.1135 71.9156 32.7207 65.6348 31.9576 58.1356L30.9628 58.2368C31.7613 66.0848 36.369 72.6679 43.619 76.1382L44.0507 75.2362ZM31.5333 58.6808L55.3783 55.1568L55.2321 54.1676L31.3871 57.6915L31.5333 58.6808ZM54.8052 54.6622V80.057H55.8052V54.6622H54.8052ZM78.3412 51.3497L55.2447 54.1659L55.3657 55.1585L78.4622 52.3423L78.3412 51.3497ZM55.8052 54.6622V28.122H54.8052V54.6622H55.8052ZM55.3769 28.6168C56.356 28.475 57.3294 28.4774 58.2592 28.6273L58.4184 27.6401C57.3823 27.473 56.3067 27.4717 55.2335 27.6272L55.3769 28.6168ZM58.2592 28.6273L74.7656 31.2904L74.9248 30.3032L58.4184 27.6401L58.2592 28.6273ZM74.7655 31.2904C76.8009 31.6189 78.1231 33.1391 78.1231 35.0721H79.1231C79.1231 32.6166 77.4128 30.7047 74.9249 30.3032L74.7655 31.2904ZM78.1231 35.0721V48.5286H79.1231V35.0721H78.1231ZM78.1231 48.5286C78.1231 49.6109 78.0498 50.6966 77.906 51.7802L78.8974 51.9118C79.0468 50.7858 79.1231 49.656 79.1231 48.5286H78.1231Z" fill="black"/>
<mask id="path-12-outside-1_120_3878" maskUnits="userSpaceOnUse" x="63.5454" y="67.8098" width="38" height="38" fill="black">
<rect fill="white" x="63.5454" y="67.8098" width="38" height="38"/>
<path fill-rule="evenodd" clip-rule="evenodd" d="M84.2927 75.2973C87.0371 74.9935 89.6182 75.3567 91.8671 76.2489L92.4242 71.8098L97.5905 80.5602C99.1743 82.6676 100.093 85.2828 100.093 88.1987C100.093 96.2899 93.019 103.632 84.2927 104.598C77.7108 105.326 72.0688 102.219 69.6935 97.176L69.6562 97.1883L65.5454 89.3719L68.5656 90.271C69.3345 82.7598 76.0823 76.206 84.2927 75.2973Z"/>
</mask>
<path fill-rule="evenodd" clip-rule="evenodd" d="M84.2927 75.2973C87.0371 74.9935 89.6182 75.3567 91.8671 76.2489L92.4242 71.8098L97.5905 80.5602C99.1743 82.6676 100.093 85.2828 100.093 88.1987C100.093 96.2899 93.019 103.632 84.2927 104.598C77.7108 105.326 72.0688 102.219 69.6935 97.176L69.6562 97.1883L65.5454 89.3719L68.5656 90.271C69.3345 82.7598 76.0823 76.206 84.2927 75.2973Z" fill="#00C27C"/>
<path d="M91.8671 76.2489L91.4983 77.1784L92.6985 77.6546L92.8593 76.3734L91.8671 76.2489ZM84.2927 75.2973L84.1827 74.3034L84.1827 74.3034L84.2927 75.2973ZM92.4242 71.8098L93.2853 71.3014L91.7966 68.7799L91.432 71.6852L92.4242 71.8098ZM97.5905 80.5602L96.7294 81.0686L96.7577 81.1165L96.7911 81.161L97.5905 80.5602ZM84.2927 104.598L84.1827 103.604H84.1827L84.2927 104.598ZM69.6935 97.176L70.5982 96.7499L70.2205 95.9481L69.3792 96.2266L69.6935 97.176ZM69.6562 97.1883L68.7712 97.6538L69.1658 98.4041L69.9705 98.1376L69.6562 97.1883ZM65.5454 89.3719L65.8307 88.4135L63.5552 87.7361L64.6603 89.8374L65.5454 89.3719ZM68.5656 90.271L68.2803 91.2294L69.4374 91.5739L69.5604 90.3728L68.5656 90.271ZM92.2359 75.3194C89.8287 74.3644 87.0827 73.9824 84.1827 74.3034L84.4027 76.2912C86.9916 76.0047 89.4076 76.349 91.4983 77.1784L92.2359 75.3194ZM91.432 71.6852L90.8749 76.1244L92.8593 76.3734L93.4164 71.9343L91.432 71.6852ZM98.4516 80.0518L93.2853 71.3014L91.5631 72.3182L96.7294 81.0686L98.4516 80.0518ZM101.093 88.1987C101.093 85.0664 100.104 82.2403 98.3899 79.9594L96.7911 81.161C98.2445 83.0949 99.093 85.4993 99.093 88.1987H101.093ZM84.4027 105.592C93.5694 104.577 101.093 96.8636 101.093 88.1987H99.093C99.093 95.7162 92.4687 102.687 84.1827 103.604L84.4027 105.592ZM68.7888 97.6021C71.3671 103.076 77.4467 106.362 84.4027 105.592L84.1827 103.604C77.9748 104.291 72.7705 101.362 70.5982 96.7499L68.7888 97.6021ZM69.3792 96.2266L69.3419 96.239L69.9705 98.1376L70.0078 98.1253L69.3792 96.2266ZM70.5413 96.7228L66.4305 88.9065L64.6603 89.8374L68.7712 97.6538L70.5413 96.7228ZM65.2601 90.3304L68.2803 91.2294L68.8509 89.3125L65.8307 88.4135L65.2601 90.3304ZM84.1827 74.3034C75.5484 75.259 68.392 82.1462 67.5708 90.1692L69.5604 90.3728C70.2769 83.3733 76.6162 77.1531 84.4027 76.2912L84.1827 74.3034Z" fill="black" mask="url(#path-12-outside-1_120_3878)"/>
<path d="M94.8584 78.8497C94.8584 86.9711 87.7321 94.4152 78.8842 95.3945C70.0659 96.3705 63.0198 90.5501 63.0198 82.4845C63.0198 74.3632 70.1461 66.9191 78.9942 65.9398L78.9392 65.4428L78.9942 65.9398C87.8123 64.9638 94.8584 70.784 94.8584 78.8497Z" fill="#49D691" stroke="black"/>
<path d="M69.1998 83.217L69.4871 82.8246L69.1998 83.217L75.3768 87.7396C75.939 88.1512 76.7196 88.0803 77.1985 87.5742L88.8654 75.2445C89.4221 74.6563 89.3564 73.7178 88.7233 73.2127L87.1435 71.9524C86.5825 71.5048 85.7723 71.5607 85.2781 72.0811L76.2085 81.63L72.5947 78.9837C72.017 78.5607 71.212 78.6485 70.7391 79.1861L68.9784 81.1874C68.4416 81.7976 68.5441 82.7369 69.1998 83.217Z" fill="white" stroke="black"/>
</svg>
